# xmcd
#
# Track frame offsets:
#	150
#	11852
#	26190
#	40272
#	55059
#	72471
#	83122
#	94304
#	107802
#	120333
#	134249
#	144521
#	158024
#	173532
#	182856
#	194415
#	205439
#	219556
#	230398
#	244150
#	258397
#	270627
#	282648
#	294086
#
# Disc length: 4080 seconds
#
# Revision: 1
# Processed by: cddbd v1.5.1PL0 Copyright (c) Steve Scherf et al.
# Submitted via: EasyCDDAExtractor 7.0.9.1
#
DISCID=700fee18
DTITLE=Various Artist - Kiwi Country  (New Zealand)
DYEAR=1999
DGENRE=Country
TTITLE0=Cole Wilson and The Tumbleweeds - Maple On The Hill
TTITLE1=Suzanne Prentice - There's Dust On Mother's Bible
TTITLE2=Danny Mcgirr - The Jokey's Last Ride
TTITLE3=Noel Parlane - One By One
TTITLE4=Christine Smith - Leaving On A Jetplane
TTITLE5=Brendan Dugan - Flowers For Mama
TTITLE6=Les Thomas and The Countrymen - Steel Guitar Rag
TTITLE7=Garner Wayne - Love In A Flowerhouse
TTITLE8=Nola Hewitt and The Tumbleweeds - Mother, Pal and Sweetheart
TTITLE9=Max Mccauley - Little Yellow Aeroplane
TTITLE10=Suzanne Prentice - Love Is Like A Butterfly
TTITLE11=The Tradewinds - I Can't Grow Peachers On A Cherrytree
TTITLE12=Cole Wilson and The Tumbleweeds - Little Buddy
TTITLE13=Suzanne Prentice - Funny Face
TTITLE14=Danny Mcgirr - My Daughters Wedding
TTITLE15=Noel Parlane - China Doll
TTITLE16=Christine Smith - The Banks On The Ohio
TTITLE17=Brendan Dugan - Do What You Do Well
TTITLE18=Garner Wayne - Birthday Wishes
TTITLE19=Patricia Lennon - Nobody Child
TTITLE20=Danny Mcgirr - Pearly Shells
TTITLE21=Dawn Garmson - New Zealand Needs A Country Hall Of Fame
TTITLE22=Danny Mcgirr &Patricia Lennon - Jackson
TTITLE23=Max Mccauley - How Far Is Heaven
EXTD=
EXTT0=
EXTT1=
EXTT2=
EXTT3=
EXTT4=
EXTT5=
EXTT6=
EXTT7=
EXTT8=
EXTT9=
EXTT10=
EXTT11=
EXTT12=
EXTT13=
EXTT14=
EXTT15=
EXTT16=
EXTT17=
EXTT18=
EXTT19=
EXTT20=
EXTT21=
EXTT22=
EXTT23=
PLAYORDER=
